<svg width="39" height="30" viewBox="0 0 39 30" xmlns="http://www.w3.org/2000/svg">
    <g fill="none" fill-rule="evenodd">
        <path d="M13.373.845c.504-.055.993-.062 1.504-.062 7.755 0 13.982 6.26 14.04 14.13-.052 2.438-1.72 4.375-3.988 4.375-2.294 0-4.278-1.617-4.278-4.374 0-3.16-2.725-5.655-6-5.655-3.274 0-5.63 2.704-5.675 5.945 0 5.68 3.268 11.02 7.83 13.4.388.243.54.27.893.467-1.013.28-2.183.38-2.823.38C7.06 29.452.72 23.122.72 15.206c0-7.35 5.495-13.593 12.653-14.36z" fill="#49AAF6"/>
        <path d="M21.885 1.084c5.296 2.048 8.782 8.06 8.827 14.117-.07 3.384-2.843 5.83-5.778 5.83-2.934 0-5.977-2.077-5.977-5.83 0-2.504-1.907-4.203-4.294-4.203-2.25 0-3.966 1.826-3.966 4.205 0 2.068.403 3.23.604 4.084.203.852 1 2.44 1.02 2.48.075.15.832 1.537 1.796 2.694.907 1.087 2.023 1.95 2.107 2.017.08.063.695.526.93.685.09.058 1.62 1.027 3.13 1.51 1.507.482 2.78.763 4.458.763 7.797 0 14.198-6.314 14.198-14.232 0-7.917-6.21-14.407-14.12-14.407-.843 0-2.13.147-2.932.29z" fill="#B2DDFE"/>
    </g>
</svg>
